REM DIRINDEX 1\3,1\2\4,1\2\5,1\2\6
REM DIRNAME cjc137,folder01,folder02,folder03,folder04,folder05
TITLE ""
FILE "126.mp3" MP3
  TRACK 01 AUDIO
    TITLE "3:cjc137_5184"
    INDEX 01 00:00:00
  TRACK 02 AUDIO
    TITLE "0:"
    INDEX 01 00:04:19
  TRACK 03 AUDIO
    TITLE "4:cjc137_5185"
    INDEX 01 00:05:26
  TRACK 04 AUDIO
    TITLE "0:"
    INDEX 01 00:06:43
  TRACK 05 AUDIO
    TITLE "6:cjc137_5186"
    INDEX 01 00:06:47
  TRACK 06 AUDIO
    TITLE "0:"
    INDEX 01 00:07:72
  TRACK 07 AUDIO
    TITLE "5:cjc137_5187"
    INDEX 01 00:08:03
  TRACK 08 AUDIO
    TITLE "0:"
    INDEX 01 00:09:18
  TRACK 09 AUDIO
    TITLE "4:cjc137_5188"
    INDEX 01 00:10:25
  TRACK 10 AUDIO
    TITLE "0:"
    INDEX 01 00:11:31
  TRACK 11 AUDIO
    TITLE "6:cjc137_5189"
    INDEX 01 00:11:37
  TRACK 12 AUDIO
    TITLE "0:"
    INDEX 01 00:13:16
  TRACK 13 AUDIO
    TITLE "5:cjc137_5190"
    INDEX 01 00:13:22
  TRACK 14 AUDIO
    TITLE "0:"
    INDEX 01 00:14:25
  TRACK 15 AUDIO
    TITLE "4:cjc137_5191"
    INDEX 01 00:15:34
  TRACK 16 AUDIO
    TITLE "0:"
    INDEX 01 00:16:34
  TRACK 17 AUDIO
    TITLE "6:cjc137_5192"
    INDEX 01 00:16:44
  TRACK 18 AUDIO
    TITLE "0:"
    INDEX 01 00:17:43
  TRACK 19 AUDIO
    TITLE "5:cjc137_5193"
    INDEX 01 00:17:49
  TRACK 20 AUDIO
    TITLE "0:"
    INDEX 01 00:18:50
  TRACK 21 AUDIO
    TITLE "4:cjc137_5194"
    INDEX 01 00:19:62
  TRACK 22 AUDIO
    TITLE "0:"
    INDEX 01 00:20:67
  TRACK 23 AUDIO
    TITLE "6:cjc137_5195"
    INDEX 01 00:21:00
  TRACK 24 AUDIO
    TITLE "0:"
    INDEX 01 00:22:13
  TRACK 25 AUDIO
    TITLE "5:cjc137_5196"
    INDEX 01 00:22:17
  TRACK 26 AUDIO
    TITLE "0:"
    INDEX 01 00:23:22
  TRACK 27 AUDIO
    TITLE "4:cjc137_5197"
    INDEX 01 00:24:31
  TRACK 28 AUDIO
    TITLE "0:"
    INDEX 01 00:25:37
  TRACK 29 AUDIO
    TITLE "6:cjc137_5198"
    INDEX 01 00:25:43
  TRACK 30 AUDIO
    TITLE "0:"
    INDEX 01 00:26:67
  TRACK 31 AUDIO
    TITLE "5:cjc137_5199"
    INDEX 01 00:26:73
  TRACK 32 AUDIO
    TITLE "0:"
    INDEX 01 00:28:00
  TRACK 33 AUDIO
    TITLE "4:cjc137_5200"
    INDEX 01 00:29:11
  TRACK 34 AUDIO
    TITLE "0:"
    INDEX 01 00:30:28
  TRACK 35 AUDIO
    TITLE "6:cjc137_5201"
    INDEX 01 00:30:34
  TRACK 36 AUDIO
    TITLE "0:"
    INDEX 01 00:31:61
  TRACK 37 AUDIO
    TITLE "5:cjc137_5202"
    INDEX 01 00:31:67
  TRACK 38 AUDIO
    TITLE "0:"
    INDEX 01 00:33:09
  TRACK 39 AUDIO
    TITLE "4:cjc137_5203"
    INDEX 01 00:34:18
  TRACK 40 AUDIO
    TITLE "0:"
    INDEX 01 00:35:19
  TRACK 41 AUDIO
    TITLE "6:cjc137_5204"
    INDEX 01 00:35:25
  TRACK 42 AUDIO
    TITLE "0:"
    INDEX 01 00:36:09
  TRACK 43 AUDIO
    TITLE "5:cjc137_5205"
    INDEX 01 00:36:15
  TRACK 44 AUDIO
    TITLE "0:"
    INDEX 01 00:37:18
  TRACK 45 AUDIO
    TITLE "4:cjc137_5206"
    INDEX 01 00:38:26
  TRACK 46 AUDIO
    TITLE "0:"
    INDEX 01 00:39:31
  TRACK 47 AUDIO
    TITLE "6:cjc137_5207"
    INDEX 01 00:39:41
  TRACK 48 AUDIO
    TITLE "0:"
    INDEX 01 00:40:52
  TRACK 49 AUDIO
    TITLE "5:cjc137_5208"
    INDEX 01 00:40:64
  TRACK 50 AUDIO
    TITLE "0:"
    INDEX 01 00:41:69
  TRACK 51 AUDIO
    TITLE "4:cjc137_5209"
    INDEX 01 00:43:05
  TRACK 52 AUDIO
    TITLE "0:"
    INDEX 01 00:44:09
  TRACK 53 AUDIO
    TITLE "6:cjc137_5210"
    INDEX 01 00:44:20
  TRACK 54 AUDIO
    TITLE "0:"
    INDEX 01 00:45:45
  TRACK 55 AUDIO
    TITLE "5:cjc137_5211"
    INDEX 01 00:45:53
  TRACK 56 AUDIO
    TITLE "0:"
    INDEX 01 00:46:60
  TRACK 57 AUDIO
    TITLE "4:cjc137_5212"
    INDEX 01 00:47:70
  TRACK 58 AUDIO
    TITLE "0:"
    INDEX 01 00:49:12
  TRACK 59 AUDIO
    TITLE "6:cjc137_5213"
    INDEX 01 00:49:20
  TRACK 60 AUDIO
    TITLE "0:"
    INDEX 01 00:50:27
  TRACK 61 AUDIO
    TITLE "5:cjc137_5214"
    INDEX 01 00:50:33
  TRACK 62 AUDIO
    TITLE "0:"
    INDEX 01 00:51:52
  TRACK 63 AUDIO
    TITLE "4:cjc137_5215"
    INDEX 01 00:52:59
  TRACK 64 AUDIO
    TITLE "0:"
    INDEX 01 00:53:70
  TRACK 65 AUDIO
    TITLE "6:cjc137_5216"
    INDEX 01 00:54:01
  TRACK 66 AUDIO
    TITLE "0:"
    INDEX 01 00:55:14
  TRACK 67 AUDIO
    TITLE "5:cjc137_5217"
    INDEX 01 00:55:18
  TRACK 68 AUDIO
    TITLE "0:"
    INDEX 01 00:56:31
  TRACK 69 AUDIO
    TITLE "4:cjc137_5218"
    INDEX 01 00:57:37
  TRACK 70 AUDIO
    TITLE "0:"
    INDEX 01 00:58:58
  TRACK 71 AUDIO
    TITLE "6:cjc137_5219"
    INDEX 01 00:58:62
  TRACK 72 AUDIO
    TITLE "0:"
    INDEX 01 01:00:23
  TRACK 73 AUDIO
    TITLE "5:cjc137_5220"
    INDEX 01 01:00:27
  TRACK 74 AUDIO
    TITLE "0:"
    INDEX 01 01:01:46
  TRACK 75 AUDIO
    TITLE "4:cjc137_5221"
    INDEX 01 01:02:54
  TRACK 76 AUDIO
    TITLE "0:"
    INDEX 01 01:03:61
  TRACK 77 AUDIO
    TITLE "6:cjc137_5222"
    INDEX 01 01:03:67
  TRACK 78 AUDIO
    TITLE "0:"
    INDEX 01 01:05:36
  TRACK 79 AUDIO
    TITLE "5:cjc137_5223"
    INDEX 01 01:05:42
  TRACK 80 AUDIO
    TITLE "0:"
    INDEX 01 01:06:49
  TRACK 81 AUDIO
    TITLE "4:cjc137_5224"
    INDEX 01 01:07:59
  TRACK 82 AUDIO
    TITLE "0:"
    INDEX 01 01:08:58
  TRACK 83 AUDIO
    TITLE "6:cjc137_5225"
    INDEX 01 01:08:68
  TRACK 84 AUDIO
    TITLE "0:"
    INDEX 01 01:10:04
  TRACK 85 AUDIO
    TITLE "5:cjc137_5226"
    INDEX 01 01:10:10
  TRACK 86 AUDIO
    TITLE "0:"
    INDEX 01 01:11:11
  TRACK 87 AUDIO
    TITLE "4:cjc137_5227"
    INDEX 01 01:12:23
  TRACK 88 AUDIO
    TITLE "0:"
    INDEX 01 01:13:44
  TRACK 89 AUDIO
    TITLE "6:cjc137_5228"
    INDEX 01 01:13:49
  TRACK 90 AUDIO
    TITLE "0:"
    INDEX 01 01:15:01
  TRACK 91 AUDIO
    TITLE "5:cjc137_5229"
    INDEX 01 01:15:03
  TRACK 92 AUDIO
    TITLE "0:"
    INDEX 01 01:16:26
  TRACK 93 AUDIO
    TITLE "4:cjc137_5230"
    INDEX 01 01:17:33
  TRACK 94 AUDIO
    TITLE "0:"
    INDEX 01 01:18:43
  TRACK 95 AUDIO
    TITLE "6:cjc137_5231"
    INDEX 01 01:18:51
  TRACK 96 AUDIO
    TITLE "0:"
    INDEX 01 01:19:64
  TRACK 97 AUDIO
    TITLE "5:cjc137_5232"
    INDEX 01 01:20:08
  TRACK 98 AUDIO
    TITLE "0:"
    INDEX 01 01:21:20
  TRACK 99 AUDIO
    TITLE "4:cjc137_5233"
    INDEX 01 01:22:27
  TRACK 100 AUDIO
    TITLE "0:"
    INDEX 01 01:23:62
  TRACK 101 AUDIO
    TITLE "6:cjc137_5234"
    INDEX 01 01:23:69
  TRACK 102 AUDIO
    TITLE "0:"
    INDEX 01 01:25:23
  TRACK 103 AUDIO
    TITLE "5:cjc137_5235"
    INDEX 01 01:25:29
  TRACK 104 AUDIO
    TITLE "0:"
    INDEX 01 01:26:64
  TRACK 105 AUDIO
    TITLE "4:cjc137_5236"
    INDEX 01 01:27:73
  TRACK 106 AUDIO
    TITLE "0:"
    INDEX 01 01:29:05
  TRACK 107 AUDIO
    TITLE "6:cjc137_5237"
    INDEX 01 01:29:11
  TRACK 108 AUDIO
    TITLE "0:"
    INDEX 01 01:30:26
  TRACK 109 AUDIO
    TITLE "5:cjc137_5238"
    INDEX 01 01:30:30
  TRACK 110 AUDIO
    TITLE "0:"
    INDEX 01 01:31:38
  TRACK 111 AUDIO
    TITLE "4:cjc137_5239"
    INDEX 01 01:32:45
  TRACK 112 AUDIO
    TITLE "0:"
    INDEX 01 01:33:52
  TRACK 113 AUDIO
    TITLE "6:cjc137_5240"
    INDEX 01 01:33:60
  TRACK 114 AUDIO
    TITLE "0:"
    INDEX 01 01:35:04
  TRACK 115 AUDIO
    TITLE "5:cjc137_5241"
    INDEX 01 01:35:10
  TRACK 116 AUDIO
    TITLE "0:"
    INDEX 01 01:36:19
  TRACK 117 AUDIO
    TITLE "4:cjc137_5242"
    INDEX 01 01:37:24
  TRACK 118 AUDIO
    TITLE "0:"
    INDEX 01 01:38:43
  TRACK 119 AUDIO
    TITLE "6:cjc137_5243"
    INDEX 01 01:38:45
  TRACK 120 AUDIO
    TITLE "0:"
    INDEX 01 01:39:70
  TRACK 121 AUDIO
    TITLE "5:cjc137_5244"
    INDEX 01 01:39:74
  TRACK 122 AUDIO
    TITLE "0:"
    INDEX 01 01:41:18
